# xmcd CD database file
#
# Track frame offsets:
#	150
#	26339
#	51753
#	78836
#	105277
#	132980
#	150871
#	169295
#	187667
#	206893
#
# Disc length: 2988 seconds
#
# Revision: 1
# Processed by: cddbd v1.5.2PL0 Copyright (c) Steve Scherf et al.
# Submitted via: CDex 1.51
#
DISCID=6e0baa0a
DTITLE=Jairo Torino Pennachchi and Vinicius Seki de Morais - Mantrans Sagrados
DYEAR=2009
DGENRE=New Age
TTITLE0=Om Mani Padme Hum
TTITLE1=Namu Myou Hou Ren Gue Kyou
TTITLE2=Helion Melion Tetragramaton
TTITLE3=Helion Melion Tetragramaton 2
TTITLE4=Gate Gate Paragate Parasangate Bodhi Swaha
TTITLE5=Om Mani Padme Hum
TTITLE6=Gate Gate Paragate Parasangate Bodhi Swaaha
TTITLE7=Namu Myou Hou Ren Gue Kyou
TTITLE8=Helion Melion Tetragramaton
TTITLE9=Belilin Belilin Belilim
EXTD=YEAR: 2009
EXTT0=
EXTT1=
EXTT2=
EXTT3=
EXTT4=
EXTT5=
EXTT6=
EXTT7=
EXTT8=
EXTT9=
PLAYORDER=
